<svg width="43" height="43" viewBox="0 0 43 43" fill="none" xmlns="http://www.w3.org/2000/svg">
<circle cx="21.5" cy="21.5" r="21.5" fill="#E9C46A"/>
<path d="M18.6899 22.6687C12.8459 18.9982 8.49604 13.3791 6.40358 6.81517C4.68151 8.58069 3.28431 10.6384 2.27823 12.8939C4.19691 20.6175 9.60835 27.1898 16.9858 30.8C18.0212 28.2096 18.598 25.4581 18.6899 22.6687ZM31.6903 20.3222C28.9288 20.7195 26.2572 21.5954 23.7957 22.9113C23.5387 29.8114 20.8442 36.3914 16.2012 41.4864C19.6277 42.3606 22.3063 42.1391 23.5451 42.0012C29.2624 36.4817 32.2462 28.5139 31.6903 20.3222ZM35.0606 14.9258L35.0646 14.9258C37.1696 14.9389 39.2662 15.1781 41.3185 15.6389C40.6443 13.2615 39.55 11.022 38.0858 9.02695C30.4504 6.83913 22.0636 8.24215 15.2581 12.8154C16.9845 15.0092 19.0794 16.8871 21.4496 18.3645C25.7213 16.1122 30.3764 14.9344 35.0606 14.9258ZM13.1506 9.65357C17.5764 6.68753 24.6206 3.59501 33.3494 4.33797C30.2877 2.16014 26.6814 0.848583 22.9132 0.560421C18.6765 0.236439 14.4455 1.22218 10.7915 3.37962C11.2966 5.58996 12.0721 7.69991 13.1506 9.65357ZM29.9355 40.2311C37.1247 36.9527 42.124 29.7279 42.124 21.3039C42.124 21.2595 42.1217 21.2136 42.118 21.1598C39.9506 20.4846 37.699 20.1188 35.4299 20.0729C35.9265 27.333 33.9476 34.4528 29.9355 40.2311ZM0.601358 19.3107C-0.22289 27.7038 4.05126 35.4392 11.0241 39.4097C12.6981 37.8726 14.1444 36.105 15.3194 34.1603C8.77989 30.9494 3.60433 25.6769 0.601358 19.3107Z" fill="#E76F51" stroke="#264653"/>
</svg>
